<svg width="124" height="124" viewBox="0 0 124 124" fill="none" xmlns="http://www.w3.org/2000/svg">
<circle cx="62" cy="62" r="50" fill="#66757F"/>
<path d="M41.1667 45.3334C35.7973 45.3334 31.4445 40.9806 31.4445 35.6111C31.4445 30.2417 35.7973 25.8889 41.1667 25.8889C46.5361 25.8889 50.8889 30.2417 50.8889 35.6111C50.8889 40.9806 46.5361 45.3334 41.1667 45.3334Z" fill="#5B6876"/>
<path d="M67.5556 64.7778C62.9532 64.7778 59.2222 61.0468 59.2222 56.4444C59.2222 51.842 62.9532 48.1111 67.5556 48.1111C72.158 48.1111 75.8889 51.842 75.8889 56.4444C75.8889 61.0468 72.158 64.7778 67.5556 64.7778Z" fill="#5B6876"/>
<path d="M71.7222 98.1111C66.3528 98.1111 62 93.7583 62 88.3888C62 83.0194 66.3528 78.6666 71.7222 78.6666C77.0917 78.6666 81.4445 83.0194 81.4445 88.3888C81.4445 93.7583 77.0917 98.1111 71.7222 98.1111Z" fill="#5B6876"/>
<path d="M70.3334 34.2222C67.2651 34.2222 64.7778 31.7349 64.7778 28.6666C64.7778 25.5984 67.2651 23.1111 70.3334 23.1111C73.4016 23.1111 75.8889 25.5984 75.8889 28.6666C75.8889 31.7349 73.4016 34.2222 70.3334 34.2222Z" fill="#5B6876"/>
<path d="M20.3333 64.7777C18.7992 64.7777 17.5555 63.5341 17.5555 61.9999C17.5555 60.4658 18.7992 59.2222 20.3333 59.2222C21.8674 59.2222 23.1111 60.4658 23.1111 61.9999C23.1111 63.5341 21.8674 64.7777 20.3333 64.7777Z" fill="#5B6876"/>
<path d="M53.6667 100.889C52.1326 100.889 50.8889 99.6453 50.8889 98.1112C50.8889 96.577 52.1326 95.3334 53.6667 95.3334C55.2008 95.3334 56.4445 96.577 56.4445 98.1112C56.4445 99.6453 55.2008 100.889 53.6667 100.889Z" fill="#5B6876"/>
<path d="M39.7778 81.4445C36.7096 81.4445 34.2223 78.9572 34.2223 75.8889C34.2223 72.8207 36.7096 70.3334 39.7778 70.3334C42.8461 70.3334 45.3334 72.8207 45.3334 75.8889C45.3334 78.9572 42.8461 81.4445 39.7778 81.4445Z" fill="#5B6876"/>
<path d="M92.3853 62C92.3853 38.8016 80.5072 19.1369 64 12C90.7152 13.2726 112 35.1371 112 62C112 88.8601 90.7208 110.725 64.0056 112C80.51 104.858 92.3853 85.1984 92.3853 62Z" fill="#FFF9EB"/>
<path d="M100.889 70.3333C97.8207 70.3333 95.3333 67.846 95.3333 64.7777C95.3333 61.7095 97.8207 59.2222 100.889 59.2222C103.957 59.2222 106.444 61.7095 106.444 64.7777C106.444 67.846 103.957 70.3333 100.889 70.3333Z" fill="#FFF5DF"/>
<path d="M95.3333 39.7777C93.7992 39.7777 92.5555 38.5341 92.5555 36.9999C92.5555 35.4658 93.7992 34.2222 95.3333 34.2222C96.8674 34.2222 98.1111 35.4658 98.1111 36.9999C98.1111 38.5341 96.8674 39.7777 95.3333 39.7777Z" fill="#FFF5DF"/>
</svg>
