<svg width="300" height="300" viewBox="0 0 132 132" fill="none" xmlns="http://www.w3.org/2000/svg">
<g clip-path="url(#clip0_89_285)">
<g filter="url(#filter0_d_89_285)">
<circle cx="66" cy="66" r="50" fill="#66757F"/>
</g>
<path d="M96.7939 66C96.7939 42.8016 85.1633 23.1369 69 16C95.1587 17.2726 116 39.1371 116 66C116 92.8601 95.1642 114.725 69.0055 116C85.166 108.858 96.7939 89.1984 96.7939 66Z" fill="#FFF9EB"/>
<path d="M45.1667 49.3334C39.7973 49.3334 35.4445 44.9806 35.4445 39.6111C35.4445 34.2417 39.7973 29.8889 45.1667 29.8889C50.5361 29.8889 54.8889 34.2417 54.8889 39.6111C54.8889 44.9806 50.5361 49.3334 45.1667 49.3334Z" fill="#5B6876"/>
<path d="M71.5556 68.7778C66.9532 68.7778 63.2222 65.0468 63.2222 60.4444C63.2222 55.842 66.9532 52.1111 71.5556 52.1111C76.158 52.1111 79.8889 55.842 79.8889 60.4444C79.8889 65.0468 76.158 68.7778 71.5556 68.7778Z" fill="#5B6876"/>
<path d="M75.7222 102.111C70.3528 102.111 66 97.7583 66 92.3889C66 87.0195 70.3528 82.6667 75.7222 82.6667C81.0917 82.6667 85.4445 87.0195 85.4445 92.3889C85.4445 97.7583 81.0917 102.111 75.7222 102.111Z" fill="#5B6876"/>
<path d="M74.3334 38.2222C71.2651 38.2222 68.7778 35.7349 68.7778 32.6666C68.7778 29.5984 71.2651 27.1111 74.3334 27.1111C77.4016 27.1111 79.8889 29.5984 79.8889 32.6666C79.8889 35.7349 77.4016 38.2222 74.3334 38.2222Z" fill="#5B6876"/>
<path d="M24.3333 68.7778C22.7992 68.7778 21.5555 67.5341 21.5555 66C21.5555 64.4659 22.7992 63.2222 24.3333 63.2222C25.8674 63.2222 27.1111 64.4659 27.1111 66C27.1111 67.5341 25.8674 68.7778 24.3333 68.7778Z" fill="#5B6876"/>
<path d="M57.6667 104.889C56.1326 104.889 54.8889 103.645 54.8889 102.111C54.8889 100.577 56.1326 99.3334 57.6667 99.3334C59.2008 99.3334 60.4445 100.577 60.4445 102.111C60.4445 103.645 59.2008 104.889 57.6667 104.889Z" fill="#5B6876"/>
<path d="M43.7778 85.4444C40.7096 85.4444 38.2223 82.9571 38.2223 79.8889C38.2223 76.8206 40.7096 74.3333 43.7778 74.3333C46.8461 74.3333 49.3334 76.8206 49.3334 79.8889C49.3334 82.9571 46.8461 85.4444 43.7778 85.4444Z" fill="#5B6876"/>
<path d="M104.889 74.3333C101.821 74.3333 99.3333 71.846 99.3333 68.7777C99.3333 65.7095 101.821 63.2222 104.889 63.2222C107.957 63.2222 110.444 65.7095 110.444 68.7777C110.444 71.846 107.957 74.3333 104.889 74.3333Z" fill="#FFF5DF"/>
<path d="M99.3333 43.7778C97.7992 43.7778 96.5555 42.5341 96.5555 41C96.5555 39.4659 97.7992 38.2222 99.3333 38.2222C100.867 38.2222 102.111 39.4659 102.111 41C102.111 42.5341 100.867 43.7778 99.3333 43.7778Z" fill="#FFF5DF"/>
</g>
<defs>
<filter id="filter0_d_89_285" x="0" y="0" width="132" height="132" filterUnits="userSpaceOnUse" color-interpolation-filters="sRGB">
<feFlood flood-opacity="0" result="BackgroundImageFix"/>
<feColorMatrix in="SourceAlpha" type="matrix" values="0 0 0 0 0 0 0 0 0 0 0 0 0 0 0 0 0 0 127 0" result="hardAlpha"/>
<feMorphology radius="6" operator="dilate" in="SourceAlpha" result="effect1_dropShadow_89_285"/>
<feOffset/>
<feGaussianBlur stdDeviation="5"/>
<feComposite in2="hardAlpha" operator="out"/>
<feColorMatrix type="matrix" values="0 0 0 0 1 0 0 0 0 0.966667 0 0 0 0 0.966667 0 0 0 1 0"/>
<feBlend mode="normal" in2="BackgroundImageFix" result="effect1_dropShadow_89_285"/>
<feBlend mode="normal" in="SourceGraphic" in2="effect1_dropShadow_89_285" result="shape"/>
</filter>
<clipPath id="clip0_89_285">
<rect width="132" height="132" fill="white" transform="matrix(-1 0 0 1 132 0)"/>
</clipPath>
</defs>
</svg>
