<svg width="300" height="300" viewBox="0 0 124 124" fill="none" xmlns="http://www.w3.org/2000/svg">
<circle cx="62" cy="62" r="50" fill="#FFF9EB" stroke="#5B6876"/>
<circle cx="62" cy="62" r="50" fill="#FFF9EB" stroke="#5B6876"/>
<path d="M31.6147 62C31.6147 38.8016 43.4928 19.1369 60 12C33.2848 13.2726 12 35.1371 12 62C12 88.8601 33.2792 110.725 59.9944 112C43.49 104.858 31.6147 85.1984 31.6147 62Z" fill="#66757F"/>
<path d="M82.8333 46.3334C77.4639 46.3334 73.1111 41.9806 73.1111 36.6111C73.1111 31.2417 77.4639 26.8889 82.8333 26.8889C88.2028 26.8889 92.5555 31.2417 92.5555 36.6111C92.5555 41.9806 88.2028 46.3334 82.8333 46.3334Z" fill="#FFF5DF"/>
<path d="M56.4445 65.7778C51.8421 65.7778 48.1112 62.0468 48.1112 57.4444C48.1112 52.842 51.8421 49.1111 56.4445 49.1111C61.0469 49.1111 64.7778 52.842 64.7778 57.4444C64.7778 62.0468 61.0469 65.7778 56.4445 65.7778Z" fill="#FFF5DF"/>
<path d="M52.2778 99.1111C46.9083 99.1111 42.5556 94.7583 42.5556 89.3888C42.5556 84.0194 46.9083 79.6666 52.2778 79.6666C57.6472 79.6666 62 84.0194 62 89.3888C62 94.7583 57.6472 99.1111 52.2778 99.1111Z" fill="#FFF5DF"/>
<path d="M53.6666 35.2222C50.5984 35.2222 48.1111 32.7349 48.1111 29.6666C48.1111 26.5984 50.5984 24.1111 53.6666 24.1111C56.7349 24.1111 59.2222 26.5984 59.2222 29.6666C59.2222 32.7349 56.7349 35.2222 53.6666 35.2222Z" fill="#FFF5DF"/>
<path d="M103.667 65.7777C102.133 65.7777 100.889 64.5341 100.889 62.9999C100.889 61.4658 102.133 60.2222 103.667 60.2222C105.201 60.2222 106.444 61.4658 106.444 62.9999C106.444 64.5341 105.201 65.7777 103.667 65.7777Z" fill="#FFF5DF"/>
<path d="M28.6666 40.7777C27.1324 40.7777 25.8888 39.5341 25.8888 37.9999C25.8888 36.4658 27.1324 35.2222 28.6666 35.2222C30.2007 35.2222 31.4443 36.4658 31.4443 37.9999C31.4443 39.5341 30.2007 40.7777 28.6666 40.7777Z" fill="#5B6876"/>
<path d="M28.6666 40.7777C27.1324 40.7777 25.8888 39.5341 25.8888 37.9999C25.8888 36.4658 27.1324 35.2222 28.6666 35.2222C30.2007 35.2222 31.4443 36.4658 31.4443 37.9999C31.4443 39.5341 30.2007 40.7777 28.6666 40.7777Z" fill="#5B6876"/>
<path d="M70.3333 101.889C68.7992 101.889 67.5555 100.645 67.5555 99.111C67.5555 97.5769 68.7992 96.3333 70.3333 96.3333C71.8674 96.3333 73.1111 97.5769 73.1111 99.111C73.1111 100.645 71.8674 101.889 70.3333 101.889Z" fill="#FFF5DF"/>
<path d="M23.1109 71.3333C20.0427 71.3333 17.5554 68.846 17.5554 65.7777C17.5554 62.7095 20.0427 60.2222 23.1109 60.2222C26.1792 60.2222 28.6665 62.7095 28.6665 65.7777C28.6665 68.846 26.1792 71.3333 23.1109 71.3333Z" fill="#5B6876"/>
<path d="M84.2223 82.4444C81.154 82.4444 78.6667 79.9571 78.6667 76.8888C78.6667 73.8206 81.154 71.3333 84.2223 71.3333C87.2905 71.3333 89.7778 73.8206 89.7778 76.8888C89.7778 79.9571 87.2905 82.4444 84.2223 82.4444Z" fill="#FFF5DF"/>
</svg>
