<svg width="80" height="80" viewBox="0 0 80 80" fill="none" xmlns="http://www.w3.org/2000/svg">
<g clip-path="url(#clip0_79_133)">
<g clip-path="url(#clip1_79_133)">
<path d="M31.8125 36.2768C32.5893 35.7143 32.9643 34.7857 32.9643 33.5089C32.9911 32.9018 32.8661 32.3036 32.5982 31.7589C32.3571 31.3214 32 30.9554 31.5625 30.6964C31.1089 30.4213 30.605 30.2392 30.0804 30.1607C29.5089 30.0536 28.9286 30 28.3571 30.0089H22.0804V37.125H28.875C30.0446 37.1339 31.0357 36.8482 31.8125 36.2768ZM32.8661 42.7054C31.9911 42.0357 30.8214 41.7054 29.3661 41.7054H22.0625V50.0982H29.2232C29.8929 50.0982 30.5089 50.0357 31.1071 49.9107C31.6731 49.8 32.2127 49.5818 32.6964 49.2679C33.1518 48.9732 33.5179 48.5714 33.7946 48.0536C34.0625 47.5357 34.1964 46.875 34.1964 46.0804C34.1964 44.5 33.75 43.3839 32.8661 42.7054ZM40 0C17.9107 0 0 17.9107 0 40C0 62.0893 17.9107 80 40 80C62.0893 80 80 62.0893 80 40C80 17.9107 62.0893 0 40 0ZM47.7232 25.6161H60.0804V28.625H47.7232V25.6161ZM40 50.4286C39.422 51.5257 38.5967 52.4733 37.5893 53.1964C36.5357 53.9286 35.3661 54.4643 34.125 54.7768C32.8265 55.1247 31.4871 55.2959 30.1429 55.2857H15.3571V24.8304H29.7321C31.1875 24.8304 32.5089 24.9643 33.7143 25.2143C34.9107 25.4643 35.9286 25.8929 36.7857 26.4732C37.6339 27.0536 38.3036 27.8304 38.7768 28.7946C39.2411 29.75 39.4821 30.9464 39.4821 32.3661C39.4821 33.9018 39.1339 35.1696 38.4375 36.1964C37.7321 37.2232 36.7143 38.0536 35.3304 38.7054C37.2143 39.2411 38.5982 40.1964 39.5089 41.5357C40.4375 42.8929 40.8929 44.5179 40.8929 46.4286C40.8929 47.9821 40.5982 49.3125 40 50.4286ZM64.8929 45.7143H48.9643C48.9643 47.4464 49.5625 49.1071 50.4643 50C51.375 50.8839 52.6786 51.3304 54.3839 51.3304C55.6161 51.3304 56.6607 51.0179 57.5536 50.4018C58.4375 49.7857 58.9732 49.1339 59.1696 48.4554H64.5089C63.6518 51.1071 62.3482 53 60.5804 54.1429C58.8304 55.2857 56.6875 55.8571 54.1964 55.8571C52.4554 55.8571 50.8929 55.5714 49.4911 55.0268C48.1429 54.5 46.9286 53.6964 45.9286 52.6607C44.9426 51.5971 44.1805 50.3461 43.6875 48.9821C43.1429 47.4732 42.875 45.8839 42.8929 44.2857C42.8929 42.6339 43.1696 41.0982 43.7054 39.6696C44.7321 36.8929 46.8661 34.6696 49.5893 33.5179C51.0446 32.9107 52.6071 32.6071 54.1875 32.625C56.0625 32.625 57.6875 32.9821 59.0982 33.7143C60.4563 34.4134 61.6355 35.4154 62.5446 36.6429C63.4464 37.8661 64.0804 39.2589 64.4821 40.8304C64.8661 42.375 65 44 64.8929 45.7143ZM54 37.1786C53.0357 37.1786 52.2232 37.3482 51.5982 37.6786C50.9732 38.0089 50.4554 38.4196 50.0625 38.8929C49.6884 39.3498 49.4118 39.8785 49.25 40.4464C49.1071 40.9196 49.0089 41.4018 48.9732 41.8929H58.8393C58.6964 40.3482 58.1607 39.2054 57.4464 38.4018C56.6964 37.6071 55.4911 37.1786 54 37.1786Z" fill="#383636"/>
</g>
</g>
<defs>
<clipPath id="clip0_79_133">
<rect width="80" height="80" fill="white"/>
</clipPath>
<clipPath id="clip1_79_133">
<rect width="80" height="80" fill="white"/>
</clipPath>
</defs>
</svg>
