<svg width="80" height="80" viewBox="0 0 80 80" fill="none" xmlns="http://www.w3.org/2000/svg">
<g clip-path="url(#clip0_79_131)">
<path d="M52.2326 18.3221H72.1951V23.1651H52.2326V18.3221ZM32.2301 37.484C36.6429 35.3727 38.9543 32.1607 38.9543 27.1976C38.9543 17.3815 31.6498 15 23.2145 15H0V64.2708H23.8649C32.8105 64.2708 41.2058 59.9681 41.2058 49.9618C41.2058 43.778 38.2839 39.2051 32.2301 37.484ZM10.8268 23.4053H20.9831C24.8956 23.4053 28.4078 24.4959 28.4078 29.0388C28.4078 33.2214 25.676 34.9024 21.8036 34.9024H10.8268V23.4053ZM22.384 55.9056H10.8168V42.3371H22.6141C27.3771 42.3371 30.389 44.3283 30.389 49.3715C30.389 54.3346 26.7967 55.9056 22.384 55.9056ZM80 46.95C80 36.3934 73.8261 27.5979 62.6592 27.5979C51.8024 27.5979 44.4178 35.773 44.4178 46.4897C44.4178 57.5966 51.4121 65.2214 62.6592 65.2214C71.1745 65.2214 76.6879 61.389 79.3396 53.2139H70.7042C69.7636 56.2658 65.9412 57.8668 62.9694 57.8668C57.2258 57.8668 54.2239 54.5047 54.2239 48.7911H79.93C79.96 48.2007 80 47.5804 80 46.95ZM54.2239 42.6073C54.5341 37.9143 57.666 34.9825 62.349 34.9825C67.272 34.9825 69.7336 37.8743 70.1639 42.6073H54.2239Z" fill="var(--font-color)"/>
</g>
<defs>
<clipPath id="clip0_79_131">
<rect width="80" height="80" fill="white"/>
</clipPath>
</defs>
</svg>
