<svg width="19" height="19" viewBox="0 0 19 19" fill="none" xmlns="http://www.w3.org/2000/svg">
<g clip-path="url(#clip0_88_641)">
<path d="M9.5 19C4.25329 19 0 14.7467 0 9.5C0 4.25329 4.25329 0 9.5 0C14.7467 0 19 4.25329 19 9.5C19 14.7467 14.7467 19 9.5 19Z" fill="#FFF2D3"/>
<path d="M-1.52588e-05 9.5C-1.52588e-05 14.7466 4.25335 19 9.49999 19C9.65515 19 9.8061 18.9847 9.95915 18.9773C13.0683 17.6241 15.3055 13.8974 15.3055 9.5C15.3055 5.10308 13.0683 1.37592 9.95915 0.0232222C9.8061 0.0158333 9.65515 0 9.49999 0C4.25335 0 -1.52588e-05 4.25336 -1.52588e-05 9.5Z" fill="#66757F"/>
<path d="M5.54169 6.33336C4.5215 6.33336 3.69447 5.50633 3.69447 4.48614C3.69447 3.46595 4.5215 2.63892 5.54169 2.63892C6.56189 2.63892 7.38892 3.46595 7.38892 4.48614C7.38892 5.50633 6.56189 6.33336 5.54169 6.33336Z" fill="#5B6876"/>
<path d="M10.5556 10.0278C9.68113 10.0278 8.97225 9.31887 8.97225 8.44442C8.97225 7.56997 9.68113 6.86108 10.5556 6.86108C11.43 6.86108 12.1389 7.56997 12.1389 8.44442C12.1389 9.31887 11.43 10.0278 10.5556 10.0278Z" fill="#5B6876"/>
<path d="M11.3472 16.3611C10.327 16.3611 9.50001 15.534 9.50001 14.5138C9.50001 13.4937 10.327 12.6666 11.3472 12.6666C12.3674 12.6666 13.1945 13.4937 13.1945 14.5138C13.1945 15.534 12.3674 16.3611 11.3472 16.3611Z" fill="#5B6876"/>
<path d="M11.0834 4.2222C10.5004 4.2222 10.0278 3.74961 10.0278 3.16664C10.0278 2.58367 10.5004 2.11108 11.0834 2.11108C11.6663 2.11108 12.1389 2.58367 12.1389 3.16664C12.1389 3.74961 11.6663 4.2222 11.0834 4.2222Z" fill="#5B6876"/>
<path d="M1.58331 10.0277C1.29182 10.0277 1.05553 9.79143 1.05553 9.49995C1.05553 9.20846 1.29182 8.97217 1.58331 8.97217C1.87479 8.97217 2.11108 9.20846 2.11108 9.49995C2.11108 9.79143 1.87479 10.0277 1.58331 10.0277Z" fill="#5B6876"/>
<path d="M15.8333 5.27772C15.5418 5.27772 15.3055 5.04143 15.3055 4.74995C15.3055 4.45846 15.5418 4.22217 15.8333 4.22217C16.1248 4.22217 16.3611 4.45846 16.3611 4.74995C16.3611 5.04143 16.1248 5.27772 15.8333 5.27772Z" fill="#FCE6B1"/>
<path d="M7.91668 16.8889C7.6252 16.8889 7.3889 16.6526 7.3889 16.3612C7.3889 16.0697 7.6252 15.8334 7.91668 15.8334C8.20816 15.8334 8.44446 16.0697 8.44446 16.3612C8.44446 16.6526 8.20816 16.8889 7.91668 16.8889Z" fill="#5B6876"/>
<path d="M16.8889 11.0833C16.3059 11.0833 15.8333 10.6107 15.8333 10.0277C15.8333 9.44476 16.3059 8.97217 16.8889 8.97217C17.4719 8.97217 17.9445 9.44476 17.9445 10.0277C17.9445 10.6107 17.4719 11.0833 16.8889 11.0833Z" fill="#FCE6B1"/>
<path d="M5.27782 13.1945C4.69485 13.1945 4.22226 12.7219 4.22226 12.1389C4.22226 11.556 4.69485 11.0834 5.27782 11.0834C5.86079 11.0834 6.33337 11.556 6.33337 12.1389C6.33337 12.7219 5.86079 13.1945 5.27782 13.1945Z" fill="#5B6876"/>
</g>
<defs>
<clipPath id="clip0_88_641">
<rect width="19" height="19" fill="white" transform="matrix(-1 0 0 1 19 0)"/>
</clipPath>
</defs>
</svg>
