<svg width="42" height="25" viewBox="0 0 42 25" fill="none" xmlns="http://www.w3.org/2000/svg">
<path d="M31.7143 25H10.2857V24.99C7.59987 24.8647 5.04622 23.5649 3.13814 21.3388C1.12882 18.9946 0 15.8152 0 12.5C0 9.18479 1.12882 6.00537 3.13814 3.66116C5.04622 1.43508 7.59987 0.135322 10.2857 0.00999339V0H31.7143V0.00999339C34.4001 0.135322 36.9538 1.43508 38.8619 3.66116C40.8712 6.00537 42 9.18479 42 12.5C42 15.8152 40.8712 18.9946 38.8619 21.3388C36.9538 23.5649 34.4001 24.8647 31.7143 24.99V25Z" fill="#66757F"/>
<path d="M30.1836 22H11.8164V21.9924C9.51419 21.8972 7.32533 20.9094 5.68982 19.2175C3.96756 17.4359 3 15.0196 3 12.5C3 9.98044 3.96756 7.56408 5.68982 5.78249C7.32533 4.09064 9.51419 3.10282 11.8164 3.00759V3H30.1836V3.00759C32.4858 3.10282 34.6747 4.09064 36.3102 5.78249C38.0324 7.56408 39 9.98044 39 12.5C39 15.0196 38.0324 17.4359 36.3102 19.2175C34.6747 20.9094 32.4858 21.8972 30.1836 21.9924V22Z" fill="#5B6876"/>
<circle r="9.5" transform="matrix(-1 0 0 1 29.5 12.5)" fill="#FFF2D3"/>
<g clip-path="url(#clip0_88_632)">
<path d="M28.5 22C23.2533 22 19 17.7467 19 12.5C19 7.25329 23.2533 3 28.5 3C33.7467 3 38 7.25329 38 12.5C38 17.7467 33.7467 22 28.5 22Z" fill="#FFF2D3"/>
<path d="M19 12.5C19 17.7466 23.2533 22 28.5 22C28.6552 22 28.8061 21.9847 28.9592 21.9773C32.0683 20.6241 34.3055 16.8974 34.3055 12.5C34.3055 8.10308 32.0683 4.37592 28.9592 3.02322C28.8061 3.01583 28.6552 3 28.5 3C23.2533 3 19 7.25336 19 12.5Z" fill="#66757F"/>
<path d="M24.5417 9.33336C23.5215 9.33336 22.6945 8.50633 22.6945 7.48614C22.6945 6.46595 23.5215 5.63892 24.5417 5.63892C25.5619 5.63892 26.3889 6.46595 26.3889 7.48614C26.3889 8.50633 25.5619 9.33336 24.5417 9.33336Z" fill="#5B6876"/>
<path d="M29.5556 13.0278C28.6811 13.0278 27.9722 12.3189 27.9722 11.4444C27.9722 10.57 28.6811 9.86108 29.5556 9.86108C30.43 9.86108 31.1389 10.57 31.1389 11.4444C31.1389 12.3189 30.43 13.0278 29.5556 13.0278Z" fill="#5B6876"/>
<path d="M30.3472 19.3611C29.327 19.3611 28.5 18.534 28.5 17.5138C28.5 16.4937 29.327 15.6666 30.3472 15.6666C31.3674 15.6666 32.1945 16.4937 32.1945 17.5138C32.1945 18.534 31.3674 19.3611 30.3472 19.3611Z" fill="#5B6876"/>
<path d="M30.0834 7.2222C29.5004 7.2222 29.0278 6.74961 29.0278 6.16664C29.0278 5.58367 29.5004 5.11108 30.0834 5.11108C30.6663 5.11108 31.1389 5.58367 31.1389 6.16664C31.1389 6.74961 30.6663 7.2222 30.0834 7.2222Z" fill="#5B6876"/>
<path d="M20.5833 13.0277C20.2918 13.0277 20.0555 12.7914 20.0555 12.4999C20.0555 12.2085 20.2918 11.9722 20.5833 11.9722C20.8748 11.9722 21.1111 12.2085 21.1111 12.4999C21.1111 12.7914 20.8748 13.0277 20.5833 13.0277Z" fill="#5B6876"/>
<path d="M34.8333 8.27772C34.5418 8.27772 34.3055 8.04143 34.3055 7.74995C34.3055 7.45846 34.5418 7.22217 34.8333 7.22217C35.1248 7.22217 35.3611 7.45846 35.3611 7.74995C35.3611 8.04143 35.1248 8.27772 34.8333 8.27772Z" fill="#FCE6B1"/>
<path d="M26.9167 19.8889C26.6252 19.8889 26.3889 19.6526 26.3889 19.3612C26.3889 19.0697 26.6252 18.8334 26.9167 18.8334C27.2082 18.8334 27.4445 19.0697 27.4445 19.3612C27.4445 19.6526 27.2082 19.8889 26.9167 19.8889Z" fill="#5B6876"/>
<path d="M35.8889 14.0833C35.3059 14.0833 34.8333 13.6107 34.8333 13.0277C34.8333 12.4448 35.3059 11.9722 35.8889 11.9722C36.4719 11.9722 36.9445 12.4448 36.9445 13.0277C36.9445 13.6107 36.4719 14.0833 35.8889 14.0833Z" fill="#FCE6B1"/>
<path d="M24.2778 16.1945C23.6949 16.1945 23.2223 15.7219 23.2223 15.1389C23.2223 14.556 23.6949 14.0834 24.2778 14.0834C24.8608 14.0834 25.3334 14.556 25.3334 15.1389C25.3334 15.7219 24.8608 16.1945 24.2778 16.1945Z" fill="#5B6876"/>
</g>
<defs>
<clipPath id="clip0_88_632">
<rect width="19" height="19" fill="white" transform="matrix(-1 0 0 1 38 3)"/>
</clipPath>
</defs>
</svg>
