<svg width="80" height="80" viewBox="0 0 80 80" fill="none" xmlns="http://www.w3.org/2000/svg">
<g clip-path="url(#clip0_81_190)">
<g clip-path="url(#clip1_81_190)">
<path fill-rule="evenodd" clip-rule="evenodd" d="M40 4.14996C19.8167 4.14996 3.47667 20.4066 3.47667 40.4266C3.47667 55.1266 12.2867 67.7766 24.9667 73.4666C26.2933 74.0633 27.59 73.8266 28.6033 73.0666C29.1637 72.6302 29.6155 72.07 29.9231 71.4298C30.2308 70.7896 30.386 70.0868 30.3767 69.3766V67.4766L25.8533 66.8633C25.8198 66.8588 25.7865 66.8532 25.7533 66.8466C23.26 66.36 21.5767 65.4833 20.3433 64.22C19.3067 63.1566 18.6733 61.8833 18.1367 60.8033L17.95 60.4266C17.454 59.392 16.9123 58.3799 16.3267 57.3933C15.8767 56.68 15.5267 56.3133 15.18 56.0833C14.3 55.5 13.4533 54.51 13.4533 53.2733C13.4503 52.9174 13.5265 52.5652 13.6764 52.2423C13.8263 51.9195 14.0462 51.634 14.32 51.4066C14.8369 50.9974 15.481 50.7827 16.14 50.8C16.88 50.8 17.5767 51.0266 18.1567 51.2866C18.75 51.5533 19.34 51.9066 19.89 52.2733C21.23 53.1666 22.55 54.2233 23.6667 55.5266C24.83 56.88 25.6533 57.74 26.8933 57.9166C27.9133 58.0633 28.9533 58.0666 29.7633 58.03C29.8759 57.3886 30.0616 56.7623 30.3167 56.1633C29.3274 55.9324 28.3515 55.6476 27.3933 55.31C25.2133 54.5366 22.7833 53.3333 21.15 51.51C19.3567 49.5033 18.2467 47.7133 17.6267 45.62C17.0233 43.58 16.9233 41.37 16.9233 38.65C16.9233 34.4833 18.7267 30.9733 20.08 29.11C19.56 27.4786 19.1863 25.8042 18.9633 24.1066C18.8156 23.0361 18.8168 21.9502 18.9667 20.88C19.1333 19.9033 19.55 18.7033 20.6467 17.98C21.7033 17.2766 22.9433 17.3066 23.91 17.4866C24.9133 17.6766 25.9567 18.0933 26.9167 18.57C28.48 19.3433 30.0333 20.3766 31.1967 21.2533C33.2033 20.6633 36.7533 19.9033 39.9633 19.8333H40.0367C43.25 19.9033 46.64 20.6633 48.5967 21.25C49.7633 20.3766 51.3133 19.34 52.8733 18.57C53.8333 18.0933 54.8733 17.6766 55.88 17.4866C56.8467 17.3066 58.0867 17.2766 59.1467 17.9766C60.24 18.7033 60.66 19.9033 60.8233 20.88C60.9933 21.8966 60.9533 23.0333 60.8233 24.1066C60.6013 25.8041 60.2287 27.4785 59.71 29.11C61.0633 30.9766 62.8667 34.4866 62.8667 38.65C62.8667 41.37 62.7667 43.58 62.1667 45.6166C61.5433 47.7166 60.4333 49.5033 58.64 51.51C57.0067 53.3333 54.5767 54.5366 52.3967 55.31C51.2395 55.7167 50.057 56.0474 48.8567 56.3C49.2667 57.54 49.4133 58.5433 49.4133 59.12V69.42C49.4133 70.9866 50.1433 72.3233 51.18 73.1033C52.1867 73.8666 53.48 74.1033 54.8067 73.5233C67.6067 67.8833 76.52 55.2 76.52 40.4233C76.52 20.4066 60.1867 4.14996 40 4.14996ZM31.5867 61.3666C30.72 61.49 31.5833 61.3666 31.5833 61.3666H31.5733L31.5467 61.3733L31.45 61.3866C30.9549 61.4448 30.4579 61.4859 29.96 61.51C28.7737 61.5718 27.5842 61.5238 26.4067 61.3666C23.77 60.9933 22.1667 59.1266 21.13 57.9133L21.03 57.8C20.6911 57.4068 20.327 57.036 19.94 56.69C20.2833 57.3233 20.64 58.03 21.0233 58.79L21.0567 58.8566L21.2267 59.2033C21.81 60.3633 22.1933 61.1366 22.83 61.7833C23.45 62.4166 24.4167 63.03 26.37 63.4166L32.35 64.2266C32.7677 64.2831 33.1506 64.4893 33.4277 64.8069C33.7048 65.1245 33.8572 65.5318 33.8567 65.9533V69.3766C33.8567 72.0433 32.6067 74.42 30.69 75.86C29.6837 76.6289 28.4866 77.1085 27.2278 77.2471C25.969 77.3858 24.6962 77.1781 23.5467 76.6466C9.67333 70.4233 0 56.5666 0 40.4266C0 18.4533 17.9233 0.666626 40 0.666626C62.0767 0.666626 80 18.4533 80 40.4266C80 56.65 70.2033 70.5433 56.21 76.7133C55.0596 77.2347 53.789 77.4335 52.5343 77.2885C51.2795 77.1435 50.0878 76.66 49.0867 75.89C48.0967 75.1279 47.2969 74.1468 46.7497 73.0236C46.2026 71.9005 45.9232 70.6659 45.9333 69.4166V59.1166C45.9333 58.8833 45.77 57.5366 44.86 55.7266C44.7344 55.4756 44.6711 55.1981 44.6755 54.9175C44.6799 54.6368 44.7519 54.3614 44.8853 54.1145C45.0188 53.8676 45.2097 53.6565 45.4421 53.499C45.6744 53.3416 45.9412 53.2424 46.22 53.21C47.9289 52.9958 49.6097 52.5979 51.2333 52.0233C53.2133 51.3233 54.99 50.3633 56.0467 49.1833C57.6167 47.43 58.4 46.0833 58.83 44.6266C59.2767 43.1166 59.39 41.36 59.39 38.65C59.39 34.8466 57.39 31.65 56.47 30.62C56.2612 30.3872 56.1188 30.1025 56.0578 29.7958C55.9968 29.4891 56.0194 29.1716 56.1233 28.8766C56.7159 27.1972 57.1347 25.4615 57.3733 23.6966C57.48 22.78 57.4867 22.0133 57.3933 21.46C57.3724 21.2576 57.3112 21.0616 57.2133 20.8833C56.9838 20.8436 56.7485 20.8538 56.5233 20.9133C55.9567 21.02 55.2333 21.2866 54.4133 21.6933C52.78 22.5 51.08 23.6933 50.0267 24.5466C49.7944 24.7351 49.5173 24.8602 49.2223 24.9099C48.9273 24.9595 48.6245 24.932 48.3433 24.83C45.6444 23.9471 42.8371 23.439 40 23.32C36.6433 23.4 32.77 24.3533 31.4467 24.83C31.1655 24.932 30.8627 24.9595 30.5677 24.9099C30.2727 24.8602 29.9956 24.7351 29.7633 24.5466C28.4011 23.4499 26.9314 22.494 25.3767 21.6933C24.709 21.3427 23.9986 21.0805 23.2633 20.9133C23.0392 20.8543 22.8051 20.8441 22.5767 20.8833C22.4787 21.0615 22.4175 21.2576 22.3967 21.46C22.3033 22.0133 22.31 22.78 22.4167 23.6966C22.6569 25.4612 23.0757 27.1967 23.6667 28.8766C23.8767 29.4766 23.7467 30.1433 23.32 30.62C22.4 31.65 20.4 34.8466 20.4 38.65C20.4 41.3566 20.5133 43.1166 20.96 44.6266C21.3933 46.0833 22.1733 47.4266 23.74 49.1833C24.8 50.3633 26.5733 51.3233 28.5567 52.0233C30.1792 52.5975 31.8589 52.9953 33.5667 53.21C33.918 53.2477 34.2496 53.3915 34.5172 53.6222C34.7848 53.8529 34.9758 54.1597 35.0649 54.5017C35.1539 54.8437 35.1367 55.2046 35.0155 55.5366C34.8944 55.8685 34.675 56.1557 34.3867 56.36C33.8367 56.7533 33.4733 57.46 33.27 58.2766C33.165 58.6971 33.1025 59.127 33.0833 59.56V59.6233C33.0876 60.0459 32.9381 60.4557 32.6628 60.7764C32.3875 61.0971 32.0051 61.3068 31.5867 61.3666Z" fill="var(--font-color)"/>
</g>
</g>
<defs>
<clipPath id="clip0_81_190">
<rect width="80" height="80" fill="white"/>
</clipPath>
<clipPath id="clip1_81_190">
<rect width="80" height="80" fill="white" transform="translate(0 -1)"/>
</clipPath>
</defs>
</svg>
