<svg width="80" height="80" viewBox="0 0 80 80" fill="none" xmlns="http://www.w3.org/2000/svg">
<g clip-path="url(#clip0_79_128)">
<path d="M39.7681 26.4316C32.4232 26.4316 26.4293 32.4255 26.4293 39.7704C26.4293 47.1152 32.4232 53.1091 39.7681 53.1091C47.1129 53.1091 53.1068 47.1152 53.1068 39.7704C53.1068 32.4255 47.1129 26.4316 39.7681 26.4316ZM79.7743 39.7704C79.7743 34.2467 79.8244 28.7731 79.5142 23.2595C79.204 16.8553 77.743 11.1716 73.0599 6.48851C68.3669 1.79542 62.6931 0.344469 56.2889 0.0342654C50.7653 -0.275938 45.2917 -0.225905 39.7781 -0.225905C34.2544 -0.225905 28.7808 -0.275938 23.2672 0.0342654C16.863 0.344469 11.1793 1.80543 6.4962 6.48851C1.80311 11.1816 0.35216 16.8553 0.0419558 23.2595C-0.268248 28.7832 -0.218215 34.2568 -0.218215 39.7704C-0.218215 45.284 -0.268248 50.7676 0.0419558 56.2812C0.35216 62.6854 1.81312 68.3692 6.4962 73.0522C11.1893 77.7453 16.863 79.1963 23.2672 79.5065C28.7908 79.8167 34.2644 79.7667 39.7781 79.7667C45.3017 79.7667 50.7753 79.8167 56.2889 79.5065C62.6931 79.1963 68.3769 77.7353 73.0599 73.0522C77.753 68.3592 79.204 62.6854 79.5142 56.2812C79.8344 50.7676 79.7743 45.294 79.7743 39.7704ZM39.7681 60.2939C28.4106 60.2939 19.2446 51.1278 19.2446 39.7704C19.2446 28.4129 28.4106 19.2469 39.7681 19.2469C51.1255 19.2469 60.2915 28.4129 60.2915 39.7704C60.2915 51.1278 51.1255 60.2939 39.7681 60.2939ZM61.1321 23.1995C58.4804 23.1995 56.3389 21.0581 56.3389 18.4063C56.3389 15.7546 58.4804 13.6132 61.1321 13.6132C63.7838 13.6132 65.9252 15.7546 65.9252 18.4063C65.926 19.036 65.8026 19.6596 65.562 20.2415C65.3214 20.8234 64.9684 21.3521 64.5231 21.7974C64.0779 22.2426 63.5492 22.5956 62.9673 22.8362C62.3854 23.0768 61.7618 23.2003 61.1321 23.1995Z" fill="#383636"/>
</g>
<defs>
<clipPath id="clip0_79_128">
<rect width="80" height="80" fill="white"/>
</clipPath>
</defs>
</svg>
