<svg width="80" height="80" viewBox="0 0 80 80" fill="none" xmlns="http://www.w3.org/2000/svg">
<path d="M15.6851 0.0200195C7.06769 0.0200195 0.0148926 7.07266 0.0148926 15.6902V64.3175C0.0148926 72.9348 7.06753 79.9851 15.6851 79.9851H64.3123C72.9298 79.9851 79.9799 72.9349 79.9799 64.3175V15.6902C79.9799 7.07282 72.9298 0.0200195 64.3123 0.0200195H15.6851ZM19.6263 13.2159C23.7582 13.2159 26.3032 15.9283 26.3818 19.4939C26.3818 22.9807 23.758 25.7694 19.5464 25.7694H19.4689C15.4157 25.7694 12.7959 22.9808 12.7959 19.4939C12.7959 15.9284 15.495 13.2159 19.6263 13.2159H19.6263ZM55.2327 29.8807C63.179 29.8807 69.1359 35.0744 69.1359 46.2355V67.0715H57.0597V47.6325C57.0597 42.7477 55.3119 39.4151 50.9416 39.4151C47.6053 39.4151 45.6166 41.6613 44.7435 43.8312C44.4246 44.6075 44.3462 45.6918 44.3462 46.7778V67.0715H32.2699C32.2699 67.0715 32.4284 34.1424 32.2699 30.7328H44.3487V35.8787C45.9535 33.4027 48.824 29.8806 55.2327 29.8806V29.8807ZM13.5083 30.7355H25.5845V67.0716H13.5083V30.7355Z" fill="var(--font-color)"/>
</svg>
