<svg width="80" height="80" viewBox="0 0 80 80" fill="none" xmlns="http://www.w3.org/2000/svg">
<path d="M16.61 23.99C20.638 23.99 23.9033 20.7246 23.9033 16.6967C23.9033 12.6687 20.638 9.40332 16.61 9.40332C12.582 9.40332 9.31665 12.6687 9.31665 16.6967C9.31665 20.7246 12.582 23.99 16.61 23.99Z" fill="var(--font-color)"/>
<path d="M30.79 29.5167V69.9801H43.3533V49.9701C43.3533 44.6901 44.3466 39.5767 50.8933 39.5767C57.35 39.5767 57.43 45.6134 57.43 50.3034V69.9834H70V47.7934C70 36.8934 67.6533 28.5167 54.9133 28.5167C48.7966 28.5167 44.6966 31.8734 43.02 35.0501H42.85V29.5167H30.79ZM10.3167 29.5167H22.9V69.9801H10.3167V29.5167Z" fill="var(--font-color)"/>
</svg>
