<svg width="19" height="19" viewBox="0 0 19 19" fill="none" xmlns="http://www.w3.org/2000/svg">
<g clip-path="url(#clip0_88_627)">
<path d="M19 9.5C19 14.7466 14.7466 19 9.5 19C9.34431 19 9.19389 18.9847 9.04083 18.9773C5.93169 17.6241 3.69444 13.8974 3.69444 9.5C3.69444 5.10308 5.93169 1.37592 9.04083 0.0232222C9.19389 0.0158333 9.34431 0 9.5 0C14.7466 0 19 4.25336 19 9.5Z" fill="#FFF2D3"/>
<path d="M3.69438 9.49997C3.69438 5.10305 5.93163 1.37589 9.04077 0.0231934C4.00894 0.264388 -6.10352e-05 4.4085 -6.10352e-05 9.49997C-6.10352e-05 14.5909 4.00788 18.735 9.03972 18.9767C5.93111 17.623 3.69438 13.8969 3.69438 9.49997Z" fill="#66757F"/>
<path d="M13.4583 6.33336C12.4381 6.33336 11.6111 5.50633 11.6111 4.48614C11.6111 3.46595 12.4381 2.63892 13.4583 2.63892C14.4785 2.63892 15.3055 3.46595 15.3055 4.48614C15.3055 5.50633 14.4785 6.33336 13.4583 6.33336Z" fill="#FCE6B1"/>
<path d="M8.4445 10.0278C7.57005 10.0278 6.86117 9.31887 6.86117 8.44442C6.86117 7.56997 7.57005 6.86108 8.4445 6.86108C9.31895 6.86108 10.0278 7.56997 10.0278 8.44442C10.0278 9.31887 9.31895 10.0278 8.4445 10.0278Z" fill="#FCE6B1"/>
<path d="M7.65278 16.3611C6.63259 16.3611 5.80556 15.534 5.80556 14.5138C5.80556 13.4937 6.63259 12.6666 7.65278 12.6666C8.67297 12.6666 9.5 13.4937 9.5 14.5138C9.5 15.534 8.67297 16.3611 7.65278 16.3611Z" fill="#FCE6B1"/>
<path d="M7.91661 4.2222C7.33365 4.2222 6.86106 3.74961 6.86106 3.16664C6.86106 2.58367 7.33365 2.11108 7.91661 2.11108C8.49958 2.11108 8.97217 2.58367 8.97217 3.16664C8.97217 3.74961 8.49958 4.2222 7.91661 4.2222Z" fill="#FCE6B1"/>
<path d="M17.4167 10.0277C17.1252 10.0277 16.8889 9.79143 16.8889 9.49995C16.8889 9.20846 17.1252 8.97217 17.4167 8.97217C17.7082 8.97217 17.9445 9.20846 17.9445 9.49995C17.9445 9.79143 17.7082 10.0277 17.4167 10.0277Z" fill="#FCE6B1"/>
<path d="M3.16668 5.27772C2.8752 5.27772 2.6389 5.04143 2.6389 4.74995C2.6389 4.45846 2.8752 4.22217 3.16668 4.22217C3.45816 4.22217 3.69446 4.45846 3.69446 4.74995C3.69446 5.04143 3.45816 5.27772 3.16668 5.27772Z" fill="#5B6876"/>
<path d="M11.0833 16.8889C10.7918 16.8889 10.5555 16.6526 10.5555 16.3612C10.5555 16.0697 10.7918 15.8334 11.0833 15.8334C11.3748 15.8334 11.6111 16.0697 11.6111 16.3612C11.6111 16.6526 11.3748 16.8889 11.0833 16.8889Z" fill="#FCE6B1"/>
<path d="M2.11107 11.0833C1.5281 11.0833 1.05551 10.6107 1.05551 10.0277C1.05551 9.44476 1.5281 8.97217 2.11107 8.97217C2.69404 8.97217 3.16663 9.44476 3.16663 10.0277C3.16663 10.6107 2.69404 11.0833 2.11107 11.0833Z" fill="#5B6876"/>
<path d="M13.7223 13.1945C13.1393 13.1945 12.6667 12.7219 12.6667 12.1389C12.6667 11.556 13.1393 11.0834 13.7223 11.0834C14.3052 11.0834 14.7778 11.556 14.7778 12.1389C14.7778 12.7219 14.3052 13.1945 13.7223 13.1945Z" fill="#FCE6B1"/>
</g>
<defs>
<clipPath id="clip0_88_627">
<rect width="19" height="19" fill="white" transform="matrix(-1 0 0 1 19 0)"/>
</clipPath>
</defs>
</svg>
