<svg width="42" height="25" viewBox="0 0 42 25" fill="none" xmlns="http://www.w3.org/2000/svg">
<g id="Property 1=Default">
<path id="Union" d="M10.2857 25H31.7143V24.99C34.4001 24.8647 36.9538 23.5649 38.8619 21.3388C40.8712 18.9946 42 15.8152 42 12.5C42 9.18479 40.8712 6.00537 38.8619 3.66116C36.9538 1.43508 34.4001 0.135322 31.7143 0.00999339V0H10.2857V0.00999339C7.59987 0.135322 5.04622 1.43508 3.13814 3.66116C1.12882 6.00537 0 9.18479 0 12.5C0 15.8152 1.12882 18.9946 3.13814 21.3388C5.04622 23.5649 7.59987 24.8647 10.2857 24.99V25Z" fill="#E5E8EA"/>
<path id="Union_2" d="M11.8164 22H30.1836V21.9924C32.4858 21.8972 34.6747 20.9094 36.3102 19.2175C38.0324 17.4359 39 15.0196 39 12.5C39 9.98044 38.0324 7.56408 36.3102 5.78249C34.6747 4.09064 32.4858 3.10282 30.1836 3.00759V3H11.8164V3.00759C9.5142 3.10282 7.32533 4.09064 5.68982 5.78249C3.96756 7.56408 3 9.98044 3 12.5C3 15.0196 3.96756 17.4359 5.68982 19.2175C7.32533 20.9094 9.5142 21.8972 11.8164 21.9924V22Z" fill="#D4D9DE"/>
<g id="Frame 25">
<g id="twemoji:waning-gibbous-moon" clip-path="url(#clip0_88_630)">
<path id="Vector" d="M22 12.5C22 17.7466 17.7466 22 12.5 22C12.3443 22 12.1939 21.9847 12.0408 21.9773C8.93169 20.6241 6.69444 16.8974 6.69444 12.5C6.69444 8.10308 8.93169 4.37592 12.0408 3.02322C12.1939 3.01583 12.3443 3 12.5 3C17.7466 3 22 7.25336 22 12.5Z" fill="#FFF2D3"/>
<path id="Vector_2" d="M6.69438 12.5C6.69438 8.10305 8.93163 4.37589 12.0408 3.02319C7.00894 3.26439 2.99994 7.4085 2.99994 12.5C2.99994 17.5909 7.00788 21.735 12.0397 21.9767C8.93111 20.623 6.69438 16.8969 6.69438 12.5Z" fill="#66757F"/>
<path id="Vector_3" d="M16.4583 9.33336C15.4381 9.33336 14.6111 8.50633 14.6111 7.48614C14.6111 6.46595 15.4381 5.63892 16.4583 5.63892C17.4785 5.63892 18.3055 6.46595 18.3055 7.48614C18.3055 8.50633 17.4785 9.33336 16.4583 9.33336Z" fill="#FCE6B1"/>
<path id="Vector_4" d="M11.4445 13.0278C10.57 13.0278 9.86117 12.3189 9.86117 11.4444C9.86117 10.57 10.57 9.86108 11.4445 9.86108C12.3189 9.86108 13.0278 10.57 13.0278 11.4444C13.0278 12.3189 12.3189 13.0278 11.4445 13.0278Z" fill="#FCE6B1"/>
<path id="Vector_5" d="M10.6528 19.3611C9.63259 19.3611 8.80556 18.534 8.80556 17.5138C8.80556 16.4937 9.63259 15.6666 10.6528 15.6666C11.673 15.6666 12.5 16.4937 12.5 17.5138C12.5 18.534 11.673 19.3611 10.6528 19.3611Z" fill="#FCE6B1"/>
<path id="Vector_6" d="M10.9166 7.2222C10.3336 7.2222 9.86106 6.74961 9.86106 6.16664C9.86106 5.58367 10.3336 5.11108 10.9166 5.11108C11.4996 5.11108 11.9722 5.58367 11.9722 6.16664C11.9722 6.74961 11.4996 7.2222 10.9166 7.2222Z" fill="#FCE6B1"/>
<path id="Vector_7" d="M20.4167 13.0277C20.1252 13.0277 19.8889 12.7914 19.8889 12.4999C19.8889 12.2085 20.1252 11.9722 20.4167 11.9722C20.7082 11.9722 20.9445 12.2085 20.9445 12.4999C20.9445 12.7914 20.7082 13.0277 20.4167 13.0277Z" fill="#FCE6B1"/>
<path id="Vector_8" d="M6.16668 8.27772C5.8752 8.27772 5.6389 8.04143 5.6389 7.74995C5.6389 7.45846 5.8752 7.22217 6.16668 7.22217C6.45816 7.22217 6.69446 7.45846 6.69446 7.74995C6.69446 8.04143 6.45816 8.27772 6.16668 8.27772Z" fill="#5B6876"/>
<path id="Vector_9" d="M14.0833 19.8889C13.7918 19.8889 13.5555 19.6526 13.5555 19.3612C13.5555 19.0697 13.7918 18.8334 14.0833 18.8334C14.3748 18.8334 14.6111 19.0697 14.6111 19.3612C14.6111 19.6526 14.3748 19.8889 14.0833 19.8889Z" fill="#FCE6B1"/>
<path id="Vector_10" d="M5.11107 14.0833C4.5281 14.0833 4.05551 13.6107 4.05551 13.0277C4.05551 12.4448 4.5281 11.9722 5.11107 11.9722C5.69404 11.9722 6.16663 12.4448 6.16663 13.0277C6.16663 13.6107 5.69404 14.0833 5.11107 14.0833Z" fill="#5B6876"/>
<path id="Vector_11" d="M16.7223 16.1945C16.1393 16.1945 15.6667 15.7219 15.6667 15.1389C15.6667 14.556 16.1393 14.0834 16.7223 14.0834C17.3052 14.0834 17.7778 14.556 17.7778 15.1389C17.7778 15.7219 17.3052 16.1945 16.7223 16.1945Z" fill="#FCE6B1"/>
</g>
</g>
</g>
<defs>
<clipPath id="clip0_88_630">
<rect width="19" height="19" fill="white" transform="matrix(-1 0 0 1 22 3)"/>
</clipPath>
</defs>
</svg>
