<?xml version="1.0" standalone="no"?>
<!DOCTYPE svg PUBLIC "-//W3C//DTD SVG 20010904//EN"
 "http://www.w3.org/TR/2001/REC-SVG-20010904/DTD/svg10.dtd">
<svg version="1.0" xmlns="http://www.w3.org/2000/svg"
 width="2388.000000pt" height="1668.000000pt" viewBox="0 0 2388.000000 1668.000000"
 preserveAspectRatio="xMidYMid meet">

<g transform="translate(0.000000,1668.000000) scale(0.100000,-0.100000)"
fill="#000000" stroke="none">
<path d="M11555 8299 c-460 -39 -1163 -242 -1743 -503 -669 -301 -1410 -773
-2089 -1329 -624 -511 -1216 -1099 -1579 -1567 -106 -138 -230 -318 -309 -453
-124 -212 -260 -551 -155 -386 62 97 281 402 358 499 271 340 698 768 1102
1107 828 693 1878 1350 2835 1771 521 230 954 358 1450 428 170 24 508 25 628
1 174 -35 285 -85 376 -171 59 -56 95 -119 106 -183 6 -40 -7 -135 -23 -160
-5 -7 -83 -26 -174 -43 -210 -38 -439 -90 -570 -131 -277 -85 -708 -280 -890
-402 -215 -145 -338 -305 -389 -507 -30 -119 -25 -253 14 -333 34 -69 93 -120
174 -149 87 -32 244 -30 377 6 385 104 955 471 1252 807 113 128 183 221 247
332 50 83 55 88 107 108 104 39 405 138 685 224 450 139 481 162 225 172 -136
6 -302 -5 -622 -39 -114 -12 -209 -20 -212 -17 -2 2 0 27 4 54 14 80 11 244
-5 320 -24 113 -77 208 -164 296 -64 64 -93 85 -181 127 -109 53 -242 93 -370
111 -115 15 -343 21 -465 10z m625 -1459 c-46 -58 -197 -194 -301 -272 -283
-210 -629 -338 -916 -338 -94 0 -178 14 -189 32 -15 24 126 128 273 202 127
63 252 112 493 191 113 36 304 102 425 145 121 43 226 78 233 79 8 1 0 -16
-18 -39z"/>
</g>
</svg>
