<?xml version="1.0" standalone="no"?>
<!DOCTYPE svg PUBLIC "-//W3C//DTD SVG 20010904//EN"
 "http://www.w3.org/TR/2001/REC-SVG-20010904/DTD/svg10.dtd">
<svg version="1.0" xmlns="http://www.w3.org/2000/svg"
 width="2388.000000pt" height="1668.000000pt" viewBox="0 0 2388.000000 1668.000000"
 preserveAspectRatio="xMidYMid meet">

<g transform="translate(0.000000,1668.000000) scale(0.100000,-0.100000)"
fill="#000000" stroke="none">
<path d="M16288 14620 c-101 -54 -206 -263 -258 -512 -54 -264 -50 -569 12
-870 11 -55 11 -60 -18 -120 -37 -80 -172 -282 -255 -384 -104 -127 -306 -330
-418 -420 -320 -257 -564 -352 -716 -280 -91 43 -148 121 -191 261 -27 86 -28
99 -28 300 0 228 12 324 61 478 50 161 50 270 -2 315 -33 28 -57 23 -107 -25
-58 -57 -115 -180 -178 -388 -38 -126 -189 -376 -340 -565 -167 -208 -459
-476 -644 -591 -216 -133 -368 -149 -412 -44 -18 45 -18 126 1 200 9 32 51
134 95 226 100 212 124 283 124 374 0 179 -80 197 -344 80 -205 -90 -451 -247
-797 -506 -121 -92 -226 -169 -231 -173 -6 -3 -32 13 -59 36 -412 357 -1250
353 -2212 -11 -73 -28 -143 -51 -155 -51 -12 0 -44 11 -72 24 -152 73 -332
100 -619 93 -275 -7 -473 -38 -780 -122 -458 -126 -957 -337 -1460 -618 -298
-166 -635 -374 -870 -535 -935 -641 -1658 -1276 -2156 -1892 -382 -472 -742
-1064 -820 -1347 -24 -85 -19 -107 9 -42 30 68 166 301 257 439 209 316 462
615 863 1017 767 769 1575 1402 2377 1863 793 454 1818 833 2480 915 124 16
385 21 385 8 0 -5 -55 -41 -123 -82 -424 -257 -778 -591 -930 -879 -62 -118
-97 -242 -97 -344 0 -97 13 -145 52 -193 83 -100 218 -107 456 -24 312 109
630 329 859 594 205 238 320 453 358 675 9 46 19 87 23 91 12 12 322 106 469
143 393 99 549 120 853 120 230 0 252 -1 356 -26 107 -25 244 -79 244 -95 0
-4 -52 -53 -116 -108 -267 -231 -383 -423 -384 -635 0 -80 28 -144 80 -178 51
-35 160 -28 254 16 222 104 436 325 517 537 46 119 61 204 57 324 l-3 104 125
84 c156 106 300 192 456 275 138 74 394 192 400 185 2 -2 -11 -51 -30 -108
-105 -312 -84 -611 51 -741 51 -49 99 -68 175 -68 88 0 177 24 284 74 302 143
578 404 843 795 88 130 101 137 101 54 0 -70 38 -263 69 -355 89 -263 226
-409 412 -439 147 -24 345 37 564 174 340 212 700 628 919 1065 25 50 51 92
56 92 5 0 17 -15 26 -32 29 -57 114 -166 166 -212 186 -168 418 -195 807 -97
64 17 244 71 401 122 489 157 559 178 802 239 279 69 513 108 616 101 9 -1 2
-15 -17 -38 -173 -208 -266 -390 -310 -610 -61 -298 10 -528 188 -612 50 -23
67 -26 171 -26 104 1 124 4 209 33 268 93 472 296 594 592 67 162 81 235 81
420 1 153 -1 171 -26 240 -14 40 -24 79 -22 85 6 13 237 162 454 293 364 219
687 384 1037 530 256 108 281 121 267 144 -12 19 -190 3 -374 -33 -508 -99
-1199 -344 -1627 -575 -46 -24 -93 -44 -106 -44 -13 0 -50 9 -82 20 -165 57
-435 81 -665 61 -394 -36 -743 -137 -1255 -363 -356 -158 -478 -192 -655 -186
-108 4 -120 6 -190 40 -124 60 -253 195 -303 318 -14 33 -13 42 15 130 45 148
86 313 114 460 32 164 44 451 24 552 -34 177 -108 242 -212 188z m3269 -1782
c32 -36 61 -96 73 -155 9 -43 8 -63 -4 -106 -32 -112 -190 -289 -321 -363 -56
-31 -80 -38 -139 -42 -60 -4 -79 -1 -114 17 -45 23 -92 83 -92 117 0 58 143
226 305 359 104 85 253 195 265 195 3 0 16 -10 27 -22z m-8046 -1288 c10 -33
9 -47 -5 -85 -68 -177 -294 -375 -429 -375 -42 0 -43 25 -3 85 60 91 385 415
416 415 5 0 15 -18 21 -40z m-2326 -147 c-59 -130 -201 -308 -361 -454 -108
-98 -237 -185 -369 -249 -197 -96 -343 -133 -495 -128 -106 4 -109 11 -43 111
176 267 621 564 1183 793 l105 42 3 -29 c2 -16 -8 -54 -23 -86z"/>
</g>
</svg>
